<svg width="256" height="256" viewBox="0 0 256 256" fill="none" xmlns="http://www.w3.org/2000/svg">
<mask id="path-1-inside-1_2_46" fill="white">
<path fill-rule="evenodd" clip-rule="evenodd" d="M224 0H256V32C238.327 32 224 46.3269 224 64V192C224 209.673 238.327 224 256 224V256H224C224 238.327 209.673 224 192 224H64C46.3269 224 32 238.327 32 256H0V224C17.6731 224 32 209.673 32 192V64C32 46.3269 17.6731 32 0 32V0H32C32 17.6731 46.3269 32 64 32H192C209.673 32 224 17.6731 224 0Z"/>
</mask>
<path fill-rule="evenodd" clip-rule="evenodd" d="M224 0H256V32C238.327 32 224 46.3269 224 64V192C224 209.673 238.327 224 256 224V256H224C224 238.327 209.673 224 192 224H64C46.3269 224 32 238.327 32 256H0V224C17.6731 224 32 209.673 32 192V64C32 46.3269 17.6731 32 0 32V0H32C32 17.6731 46.3269 32 64 32H192C209.673 32 224 17.6731 224 0Z" fill="white"/>
<path d="M256 0H257V-1H256V0ZM224 0V-1H223V0H224ZM256 32V33H257V32H256ZM256 224H257V223H256V224ZM256 256V257H257V256H256ZM224 256H223V257H224V256ZM32 256V257H33V256H32ZM0 256H-1V257H0V256ZM0 224V223H-1V224H0ZM0 32H-1V33H0V32ZM0 0V-1H-1V0H0ZM32 0H33V-1H32V0ZM256 -1H224V1H256V-1ZM257 32V0H255V32H257ZM225 64C225 46.8792 238.879 33 256 33V31C237.775 31 223 45.7746 223 64H225ZM225 192V64H223V192H225ZM256 223C238.879 223 225 209.121 225 192H223C223 210.225 237.775 225 256 225V223ZM257 256V224H255V256H257ZM224 257H256V255H224V257ZM192 225C209.121 225 223 238.879 223 256H225C225 237.775 210.225 223 192 223V225ZM64 225H192V223H64V225ZM33 256C33 238.879 46.8792 225 64 225V223C45.7746 223 31 237.775 31 256H33ZM0 257H32V255H0V257ZM-1 224V256H1V224H-1ZM31 192C31 209.121 17.1208 223 0 223V225C18.2254 225 33 210.225 33 192H31ZM31 64V192H33V64H31ZM0 33C17.1208 33 31 46.8792 31 64H33C33 45.7746 18.2254 31 0 31V33ZM-1 0V32H1V0H-1ZM32 -1H0V1H32V-1ZM64 31C46.8792 31 33 17.1208 33 0H31C31 18.2254 45.7746 33 64 33V31ZM192 31H64V33H192V31ZM223 0C223 17.1208 209.121 31 192 31V33C210.225 33 225 18.2254 225 0H223Z" fill="black" mask="url(#path-1-inside-1_2_46)"/>
</svg>
